<?xml version="1.0" encoding="UTF-8" standalone="no"?>
<svg
   xmlns:svg="http://www.w3.org/2000/svg"
   xmlns="http://www.w3.org/2000/svg"
   width="400.0"
   height="300.0"

>
    <g transform="scale(69.22131719141669, -69.22131719141669)   translate(-44.35941258062657,14.887013009429147)" stroke-width="0.014446416805891092"  fill="none">
       <!-- hidden lines -->
       <g  stroke="rgb(160,160,160)" fill="none" stroke-dasharray="0.014446416805891092,0.014446416805891092" >

       </g>

       <!-- solid lines -->
       <g  stroke="rgb(0,0,0)" fill="none">
			<path d="M47.458327516136585,-16.123002944395793 L47.45555464441527,-16.208656657627284 L47.44519363038783,-16.295787676807016 L47.42739352229873,-16.383142579691444 L47.402410383391874,-16.469464723360637 L47.37060360831587,-16.553512321640113 L47.33243075305652,-16.634076308801134 L47.28844095277066,-16.70999773256141 L47.239267022208836,-16.780184426179407 " />
			<path d="M47.689416811428025,-15.774571295052873 L47.727989817348536,-15.790534223856971 L47.765218056046514,-15.8127082384694 L47.80056735419116,-15.841108080748963 L47.833500892774744,-15.87543303123604 L47.863481746172184,-15.91536965778888 L47.88997327210225,-15.960604197922303 L47.91255203782561,-16.0106909010214 L47.93108028484207,-16.064850956130908 L47.945464618396144,-16.122253829732305 L47.955611643732354,-16.182068988307066 L47.96146531598821,-16.243441836271728 L47.96324822938416,-16.305338269316728 L47.96130201288128,-16.366708706796036 L47.95587277487907,-16.427420808456425 L47.94712870527653,-16.48801746251286 L47.935009188871774,-16.54907119062676 L47.91918719705133,-16.611166184754012 L47.899422939712046,-16.674348581715652 L47.875671546737124,-16.73764031687783 L47.847986240216315,-16.799997818910608 L47.8166618880741,-16.860532964644815 L47.78204109012947,-16.918388336324533 L47.74446644620142,-16.972706516193835 L47.704298978770304,-17.02265926917038 L47.66207788542684,-17.06770060093979 L47.618442254081764,-17.107442749841884 L47.574032275097835,-17.141499700571007 L47.529486543907076,-17.16949074205991 L47.48536373680437,-17.19130094917479 L47.4421069641051,-17.20719973290992 L47.40015030640425,-17.217486534271764 L47.35992784429682,-17.22246079426677 " />
			<path d="M47.24633641458861,-17.20800230474642 L47.2745972056353,-17.2158313921279 L47.303080933687795,-17.220761947145927 L47.33159025961775,-17.222927303344285 L47.35992784429682,-17.222460794266766 " />
			<path d="M44.79280518480385,-18.13417340101119 L44.79280518480385,-16.883395865058294 " />
			<path d="M44.7928051848033,-16.88339586505848 L44.823090820600854,-16.810906980860594 L44.8550725279544,-16.74229921311877 L44.88867963226458,-16.67741083731754 L44.923841458932024,-16.61608012894145 L44.960487333357406,-16.55814536347503 L44.99854658094135,-16.503444816402826 L45.03794852708451,-16.451816763209372 L45.078622497187524,-16.403099479379208 L45.12052123555713,-16.357184829823247 L45.163691162124366,-16.314179037157885 L45.20820211572638,-16.274241913425893 L45.25412393520028,-16.23753327067005 L45.30152645938322,-16.204212920933116 L45.35047952711232,-16.174440676257873 L45.401052977224715,-16.148376348687087 L45.453316648557525,-16.126179750263532 " />
			<path d="M45.45331664855753,-16.126179750263535 L46.08358887727207,-15.886447599472865 " />
			<path d="M47.064207926296085,-15.513456528284001 L47.467876613009835,-15.359915950000701 " />
			<path d="M47.640594642947384,-15.321408408912461 L47.59780733322323,-15.325787977265698 L47.554758544905546,-15.333665936455809 L47.51144829812519,-15.345042017146117 L47.46787661301303,-15.359915949999944 " />
			<path d="M47.640594642947384,-15.321408408912461 L47.68036465335062,-15.320497182759857 L47.70979437790842,-15.321891242143073 L47.75548991961072,-15.32761415070186 L47.7916454441713,-15.335463931172251 L47.82234596227746,-15.344529862497623 " />
			<path d="M47.82234596227746,-15.344529862497623 L47.87706684371469,-15.366691234616061 L47.921697123630764,-15.39110222711094 L47.95969851204067,-15.416991078915725 L47.99283960768728,-15.443963494828179 L48.022214242148245,-15.471775613687093 L48.048494990697826,-15.500277490116174 L48.07219149475162,-15.529355503563595 L48.0936729664144,-15.558927341089701 L48.13100102156811,-15.619327270213502 L48.16203262232668,-15.681130944403854 L48.18778293142233,-15.744112041100939 L48.208962741230074,-15.808112094725853 L48.22605269792883,-15.873023948987074 L48.23943350693098,-15.938762728602326 L48.24938112888197,-16.00526691031264 L48.25609607585815,-16.07249179152506 L48.25972656805222,-16.140404327711448 L48.26037773575683,-16.208981080898507 L48.25811726060134,-16.27820696199844 L48.252977442961075,-16.348074769896254 L48.244960056872515,-16.418584109084467 L48.234033928705855,-16.489741929479017 L48.22013544063551,-16.561562414174563 L48.20316083994569,-16.63406869402445 L48.18296715827791,-16.707292642701592 L48.15935597128814,-16.781278497355355 L48.13206117455832,-16.85608558387623 L48.100705871027905,-16.931797928504515 L48.064823242342236,-17.00851960472686 L48.023720041533714,-17.086405166510993 L47.97641056141763,-17.16567436953383 L47.92139124213287,-17.24666242066053 L47.856149149143896,-17.32992955891334 L47.81837637731793,-17.372711664750035 L47.775937142569575,-17.416534121853232 L47.727194168009014,-17.461761948249507 L47.66906017775956,-17.509083427854055 L47.634562554507966,-17.5339548835548 L47.59424630084335,-17.560123557217448 L47.54388188158645,-17.588532390498393 L47.511545029629936,-17.604331878466297 L47.467876613004314,-17.62265764979956 " />
			<path d="M47.467876613006766,-17.622657649798263 L45.45331664855775,-18.388921450059843 " />
			<path d="M45.453316648558,-18.388921450060067 L45.40418029762185,-18.405565109287796 L45.35653871233363,-18.417651193194466 L45.31033402881631,-18.425356130090695 L45.265508383192824,-18.428856348287095 L45.222003911586135,-18.42832827609428 L45.179762750119195,-18.423948341822868 L45.138727034914965,-18.41589297378347 L45.09883890209638,-18.40433860028671 " />
			<path d="M45.09883890209638,-18.40433860028671 L45.05510056188011,-18.387289177092068 L45.01276241513503,-18.365970531348975 L44.97190612947536,-18.340133656597143 L44.932616063968105,-18.309521340073843 L44.894976577680296,-18.27387636901633 L44.85907202967897,-18.23294153066188 L44.82498677903115,-18.18645961224774 L44.79280518480386,-18.134173401011193 " />
			<path d="M45.52402310276505,-18.54606666717627 L45.56391123558361,-18.557621040673023 L45.604946950787834,-18.565676408712413 L45.647188112254774,-18.570056342983825 L45.69069258386148,-18.570584415176643 L45.73551822948499,-18.567084196980257 L45.78172291300237,-18.559379260084047 L45.82936449829065,-18.547293176177398 L45.87850084922689,-18.530649516949698 " />
			<path d="M45.878500849226896,-18.530649516949698 L47.893060813677316,-17.76438571668758 " />
			<path d="M47.89306081367724,-17.764385716687855 L47.95337538120756,-17.73812115212557 L48.015088142393004,-17.7044132823477 L48.077566140118854,-17.663105062852992 L48.140176417270396,-17.614039449140183 L48.20228562832206,-17.5570626015122 L48.26322568690358,-17.492307329329268 L48.32226678944567,-17.42041567473126 L48.3786727836432,-17.342082063706656 L48.43170751719103,-17.258000922243948 L48.480644689373804,-17.16888339071821 L48.52492773403307,-17.075728584243873 L48.5641435984743,-16.979778075306083 L48.59796176439519,-16.88221247922056 L48.62622265664554,-16.784062272850594 L48.64882019892606,-16.686369547113507 L48.6658442662325,-16.590376411416386 L48.67746515743512,-16.497360957114825 L48.683944275904906,-16.40757847723513 L48.685636258082006,-16.32023243555085 L48.682728039429534,-16.234543640934692 L48.67493911211599,-16.149910700330235 L48.661925056335484,-16.065916930933383 L48.64346088970994,-15.98339853373683 L48.61938308544555,-15.903792529984353 L48.58965706984691,-15.828310881040256 L48.554409563925994,-15.75787821869909 L48.51383066246949,-15.693407215061548 L48.49165537688748,-15.663698897988455 L48.46829103041098,-15.635831771661532 L48.44378915504703,-15.609922128639724 L48.418218022490706,-15.586045126311038 L48.3916681189972,-15.564221333248925 L48.36423146360466,-15.54446755145194 L48.33600007535122,-15.52680058291864 L48.30706597327503,-15.51123722964758 L48.27752117641422,-15.497794293637318 L48.24745770380695,-15.486488576886408 " />
			<path d="M48.33970687293281,-17.692256427106997 L48.304792146988056,-17.692828142830397 L48.27078903779024,-17.69016299167364 L48.23783409783874,-17.68435856452162 L48.20606087723054,-17.675510948690466 " />
			<path d="M48.75339315714976,-15.981628576639771 L48.800320549921075,-16.00108628982283 L48.8445294062153,-16.027332123501424 L48.88594337251046,-16.060228963671197 L48.92415377815114,-16.09946138879787 L48.95869022222587,-16.14466966477107 L48.98923992698652,-16.195468168843906 L49.01558018233988,-16.25145518365798 L49.037499479699434,-16.31217758371136 L49.05479940216379,-16.377116286430955 L49.06730763689815,-16.445735710137352 L49.07492818581428,-16.51746353302291 L49.077587050419474,-16.591716730580846 L49.07526950903341,-16.6678828752276 L49.067990488875175,-16.745335509306923 L49.05581478621748,-16.823440970135035 L49.03886027665349,-16.901558013928586 L49.01726614983612,-16.979052138100478 L48.991217618551644,-17.055306312451275 L48.960924019556764,-17.129703295749945 L48.926700962224345,-17.20160824602606 L48.888897986126736,-17.27038830824714 L48.84774090100759,-17.335572730872503 L48.80334855350619,-17.396832328654476 L48.75618469457213,-17.45359351897834 L48.70741371324541,-17.504781693146228 L48.65806499598067,-17.549500147160217 L48.60808139110784,-17.588033071030818 L48.557075999392765,-17.620988424758174 L48.5047560723044,-17.64839064325416 L48.450902784131664,-17.669834328986898 L48.39564912135043,-17.684739953400403 L48.339706872932815,-17.692256427106997 " />
			<path d="M46.504017452439925,-18.341167385984342 L46.51723440691605,-18.343952727269144 L46.52861450182811,-18.344119982748627 L46.537738946228814,-18.341662997370367 L46.54427195779442,-18.336672188942128 " />
			<path d="M46.89271339530724,-17.053812960598272 L46.93999798625329,-17.03541185762404 L46.986951621756766,-17.01186040277314 L47.033245662806365,-16.983323437953004 L47.0785560870401,-16.95000069977195 L47.12256575665037,-16.912125421537958 L47.164966638102534,-16.869962700806482 L47.2054619581306,-16.823807643903294 L47.24376828091977,-16.773983300409213 L47.27961749193719,-16.72083840206374 L47.312758674525654,-16.664744921913496 L47.34295986612545,-16.606095470789555 L47.370009681832265,-16.545300549336318 L47.3937187939275,-16.482785674825546 L47.413921257025365,-16.418988402865683 L47.43047566956181,-16.354355264852128 L47.44326616349571,-16.289338642594014 L47.45220321529529,-16.224393601992592 L47.45722427253333,-16.159974707933067 L47.45829419170563,-16.096532842683143 L47.45540548420828,-16.034512050067065 L47.44857836875203,-15.974346427503432 L47.43786062984707,-15.916457087660127 L47.423327283348506,-15.861249210992451 L47.40508005140356,-15.809109209794354 L47.38324665047554,-15.760402023612254 L47.35797989742766,-15.715468564951404 L47.32945663992362,-15.674623333152923 L47.29787651863116,-15.638152213142455 L47.263460569892366,-15.606310474457555 L47.22644967864074,-15.579320984559015 L47.187102892393646,-15.55737264893159 L47.14569560812072,-15.54061908889221 " />
			<path d="M46.89271339530724,-17.053812960598272 L46.85994690884043,-17.063468759677125 L46.82729045066881,-17.07055940889076 L46.79485367961783,-17.07506109817807 L46.76274551681408,-17.076958711081634 L46.73107377993336,-17.076245875508025 L46.6999448211541,-17.07292498512503 L46.66946317003179,-17.0670071913238 L46.639731182493776,-17.058512365773034 " />
			<path d="M46.53916000471396,-16.93596183040051 L46.58644459566001,-16.91756072742628 L46.63339823116349,-16.89400927257538 L46.67969227221309,-16.865472307755244 L46.72500269644682,-16.83214956957419 L46.76901236605709,-16.794274291340198 L46.81141324750926,-16.752111570608722 L46.85190856753732,-16.705956513705534 L46.89021489032649,-16.656132170211457 L46.92606410134391,-16.60298727186598 L46.95920528393238,-16.546893791715735 L46.98940647553217,-16.488244340591795 L47.01645629123899,-16.427449419138558 L47.04016540333422,-16.364934544627786 L47.06036786643209,-16.301137272667923 L47.07692227896853,-16.236504134654368 L47.08971277290243,-16.171487512396254 L47.098649824702015,-16.106542471794832 L47.103670881940054,-16.042123577735307 L47.10474080111236,-15.978681712485383 L47.101852093615,-15.916660919869306 L47.095024978158754,-15.856495297305672 L47.084307239253796,-15.798605957462367 L47.06977389275523,-15.743398080794691 L47.05152666081028,-15.691258079596594 L47.029693259882265,-15.642550893414494 L47.004426506834385,-15.597617434753644 L46.975903249330344,-15.556772202955162 L46.94432312803789,-15.520301082944695 L46.90990717929909,-15.488459344259795 L46.872896288047464,-15.461469854361255 L46.83354950180037,-15.43952151873383 L46.79214221752744,-15.42276795869445 " />
			<path d="M46.792142217527434,-15.422767958694449 L46.76241022998941,-15.414273133143679 L46.731928578867105,-15.40835533934245 L46.70079962008784,-15.405034448959455 L46.669127883207125,-15.404321613385846 L46.63701972040337,-15.406219226289407 L46.60458294935239,-15.41072091557672 L46.571926491180776,-15.417811564790354 L46.53916000471396,-15.427467363869209 " />
			<path d="M46.53916000471396,-16.93596183040051 L46.50639351824715,-16.945617629479365 L46.473737060075536,-16.952708278693 L46.441300289024554,-16.95720996798031 L46.4091921262208,-16.959107580883874 L46.377520389340084,-16.958394745310265 L46.34639143056082,-16.95507385492727 L46.31590977943851,-16.94915606112604 L46.2861777919005,-16.940661235575273 " />
			<path d="M46.28617779190049,-16.94066123557527 L46.24477050762756,-16.92390767553589 L46.20542372138046,-16.901959339908466 L46.16841283012884,-16.874969850009926 L46.13399688139004,-16.843128111325026 L46.10241676009758,-16.806656991314558 L46.07389350259354,-16.765811759516076 L46.04862674954566,-16.720878300855226 L46.026793348617645,-16.672171114673127 L46.008546116672704,-16.62003111347503 L45.99401277017413,-16.564823236807353 L45.98329503126917,-16.50693389696405 L45.976467915812925,-16.446768274400416 L45.97357920831557,-16.384747481784338 L45.97464912748787,-16.321305616534413 L45.97967018472591,-16.25688672247489 L45.988607236525496,-16.191941681873466 L46.001397730459395,-16.126925059615356 L46.01795214299584,-16.0622919216018 L46.038154606093705,-15.998494649641934 L46.06186371818894,-15.935979775131162 L46.088913533895756,-15.875184853677927 L46.11911472549555,-15.816535402553987 L46.152255908084015,-15.76044192240374 L46.18810511910144,-15.707297024058265 L46.226411441890605,-15.657472680564187 L46.26690676191867,-15.611317623660998 L46.309307643370836,-15.569154902929522 L46.353317312981105,-15.531279624695529 L46.39862773721484,-15.497956886514478 L46.44492177826444,-15.469419921694339 L46.491875413767914,-15.445868466843441 L46.53916000471396,-15.42746736386921 " />
			<path d="M46.128368086585084,-16.460066592748454 L46.118277449492595,-16.393287573947163 L46.114895936002036,-16.323135953372166 L46.118277449492595,-16.250729990470123 L46.12836808658509,-16.17722388027384 " />
			<path d="M46.433093987535976,-16.358491292431495 L46.12836808658509,-16.460066592748458 " />
			<path d="M46.433093987535976,-16.76479249369934 L46.433093987535976,-16.358491292431495 " />
			<path d="M46.64522602189194,-16.694081815580702 L46.59261909851785,-16.72507163949539 L46.56594297198712,-16.73734406993257 L46.53916000471396,-16.7474000220841 L46.51237703744081,-16.755199381448005 L46.48570091091007,-16.760711035364647 L46.45923803966256,-16.763912997129175 L46.43309398753598,-16.764792493699353 " />
			<path d="M46.64522602189194,-16.694081815580684 L46.64522602189194,-16.28778061431284 " />
			<path d="M46.64522602189194,-16.28778061431284 L46.94995192284283,-16.186205313995877 " />
			<path d="M46.94995192284284,-16.18620531399587 L46.96004255993533,-16.112699203799586 L46.96342407342589,-16.040293240897547 L46.96004255993533,-15.970141620322547 L46.949951922842835,-15.90336260152126 " />
			<path d="M46.94995192284283,-15.903362601521263 L46.64522602189194,-16.004937901838225 " />
			<path d="M46.64522602189194,-16.004937901838222 L46.64522602189194,-15.598636700570378 " />
			<path d="M46.43309398753598,-15.669347378689018 L46.485700910910076,-15.638357554774332 L46.51237703744081,-15.626085124337152 L46.53916000471396,-15.616029172185621 L46.56594297198712,-15.608229812821715 L46.59261909851786,-15.602718158905073 L46.61908196976537,-15.599516197140547 L46.64522602189194,-15.598636700570367 " />
			<path d="M46.433093987535976,-16.075648579956876 L46.433093987535976,-15.669347378689032 " />
			<path d="M46.12836808658509,-16.17722388027384 L46.433093987535976,-16.075648579956876 " />
			<path d="M46.12836808658509,-16.17722388027384 L46.34050012094106,-16.247934558392494 " />
			<path d="M46.340500120941044,-16.247934558392505 L46.330409483848555,-16.321440668588785 L46.327027970357996,-16.39384663149082 " />
			<path d="M46.433093987535976,-16.075648579956876 L46.64522602189194,-16.14635925807553 " />
			<path d="M46.645226021891936,-16.14635925807553 L46.34050012094105,-16.247934558392494 " />
			<path d="M46.433093987535976,-15.669347378689032 L46.64522602189194,-15.740058056807687 " />
			<path d="M46.645226021891936,-16.004937901838225 L46.645226021891936,-16.14635925807553 " />
			<path d="M46.64522602189194,-16.004937901838222 L46.85735805624791,-16.075648579956876 " />
			<path d="M46.96342407342589,-16.04029324089755 L46.857358056247904,-16.07564857995688 " />
			<path d="M46.433093987535976,-16.358491292431495 L46.64522602189194,-16.42920197055015 " />
			<path d="M46.645226021891936,-16.42920197055015 L46.645226021891936,-16.694081815580702 " />
			<path d="M45.878500849226896,-18.530649516949698 L45.45331664855801,-18.38892145006007 " />
			<path d="M47.811952210849725,-17.73734951574535 L47.46787661300669,-17.622657649798732 " />
			<path d="M47.89306081367724,-17.764385716687855 L47.811952210849725,-17.73734951574535 " />
			<path d="M48.36176721082373,-17.694883534789028 L48.35069159584695,-17.694591994939096 L48.33970687085693,-17.692256427245674 " />
			<path d="M46.43569737997639,-18.36767800791704 L46.452488406682285,-18.369937171927027 L46.47021874522507,-18.366045139667598 L46.48776551280384,-18.35624839803318 L46.50401745237869,-18.341167385977027 " />
			<path d="M46.50401745168696,-18.341167386767353 L46.43614381447481,-18.318542840910958 " />
			<path d="M46.50401745172812,-18.34116738678107 L46.56269682672214,-18.2704067745687 " />
			<path d="M47.68941903957159,-15.774564860378645 L47.30595238843647,-15.646742643333603 " />
			<path d="M47.24633418644505,-17.208008739420652 L46.8316107394112,-17.06976759040937 " />
			<path d="M45.09884971306481,-18.404306019065164 L45.52403391373348,-18.546034085954723 " />
			<path d="M48.19142553006996,-15.467558708186173 L47.822344218590885,-15.344531604359819 " />
			<path d="M48.24753345297312,-15.486261349153898 L48.19142553006996,-15.467558708186173 " />
			<path d="M48.20606694568785,-17.675492616642778 L48.10570567440787,-17.64203885954945 " />
			<path d="M48.361767210851866,-17.694883534787145 L48.32099649730096,-17.695660068189145 L48.28132815007329,-17.69258635518836 L48.24296275215344,-17.685813002568253 L48.20606257488875,-17.675492538598412 " />
			<path d="M48.75338662581763,-15.981646472571441 L48.78250869626628,-15.992607060595653 L48.81108828095727,-16.005923404309407 L48.839015758466644,-16.021628303117982 L48.86617760548105,-16.039739973652082 L48.8924563967978,-16.060262049767847 L48.9177308053248,-16.08318358254685 L48.94187560208062,-16.108479040296096 L48.96476165619444,-16.136108308548017 L48.98497552857338,-16.164097610182846 L49.003895819115776,-16.1940439067856 L49.021433065590465,-16.2258726608925 L49.03750344085142,-16.259505100703628 L49.064122950126176,-16.329224235201142 L49.084589003843185,-16.40464025246493 L49.09856203893326,-16.484952959492677 L49.10581837980222,-16.569282475784085 L49.10639050130506,-16.651393517492703 L49.10088165412871,-16.735405520282644 L49.0893300824305,-16.820474864807785 L49.071857757925,-16.90574072586507 L49.049015131677955,-16.989129554350654 L49.02084188534637,-17.071039907101536 L48.98763315438748,-17.150657502157035 L48.949749621874474,-17.22719678043291 L48.9016081964556,-17.309364463997365 L48.84863450769613,-17.38556263915349 L48.791552848870765,-17.45484899676554 L48.73114794869441,-17.516392451277152 L48.686111746229315,-17.555460510215674 L48.64010065079085,-17.589952919509578 L48.59344295852459,-17.61969094598548 L48.54646454211646,-17.644554045835203 L48.49948885079273,-17.664479864615814 L48.452836910320016,-17.679464237249576 L48.40682732300529,-17.68956118802398 L48.36177626769586,-17.694882930591742 " />
			<path d="M48.75338679482508,-15.981647821321948 L48.63148696421806,-15.94101454445294 " />
			<path d="M46.43569737997637,-18.367678007917032 L46.4591509470549,-18.372475439613957 L46.483072679407776,-18.371561174427242 L46.50609165805466,-18.36498760753793 L46.5268886994904,-18.353131460309005 L46.544271956133976,-18.33667219094316 " />
			<path d="M46.43569737997642,-18.367678007917046 L46.3670892523172,-18.344808632030638 " />
			<path d="M46.544271956640415,-18.336672190332564 L46.61603560704778,-18.250118683255998 " />
			<path d="M46.79214221752743,-15.42276795869445 L47.145695608120704,-15.540619088892207 " />
			<path d="M46.28617779190049,-16.940661235575273 L46.63973118249377,-17.058512365773034 " />

       </g>
    </g>
    
</svg>
